PathFileType	4	(X/Y/Z)	./resultDataOpenSim/trcMotMarkerGrf/sub06/qtm-04-01.trc
DataRate	CameraRate	NumFrames	NumMarkers	Units	OrigDataRate	OrigDataStartFrame	OrigNumFrames
250.000000	250.000000	10	24	m	250.000000	449	513
Frame#	Time	L.Toe.Tip			R.Toe.Tip			L.Ankle.Lat			R.Ankle.Lat			L.Ankle.Med			R.Ankle.Med			L.Heel			R.Heel			L.Knee.Lat			R.Knee.Lat			L.Knee.Med			R.Knee.Med			L.Thigh.Upper			R.Thigh.Upper			L.ASIS			R.ASIS			V.Sacral			L.Acromium			R.Acromium			C7			L.Elbow			R.Elbow			L.Wrist.Lat			R.Wrist.Lat
		X1	Y1	Z1	X2	Y2	Z2	X3	Y3	Z3	X4	Y4	Z4	X5	Y5	Z5	X6	Y6	Z6	X7	Y7	Z7	X8	Y8	Z8	X9	Y9	Z9	X10	Y10	Z10	X11	Y11	Z11	X12	Y12	Z12	X13	Y13	Z13	X14	Y14	Z14	X15	Y15	Z15	X16	Y16	Z16	X17	Y17	Z17	X18	Y18	Z18	X19	Y19	Z19	X20	Y20	Z20	X21	Y21	Z21	X22	Y22	Z22	X23	Y23	Z23	X24	Y24	Z24

449	1.792	1.6876885	0.033478204	-0.010391724	1.349213	0.084405915	0.16079167	1.5620464	0.066429961	-0.030834998	1.3094778	0.2149381	0.18511165	1.5670939	0.082961184	0.055170874	1.3468292	0.212844	0.10538481	1.4876727	0.041083825	0.015338547	1.2680155	0.25003146	0.12157741	1.6432375	0.43392856	-0.057269978	1.6162975	0.4324761	0.22325441	1.6158328	0.43395145	0.061318932	1.6170036	0.41174906	0.089912503	1.5485394	0.81987666	-0.12931811	1.5026198	0.78279762	0.21042237	1.6132834	0.86233339	-0.07707354	1.5958974	0.84653523	0.16991875	1.4149081	0.92480069	0.043644244	1.5340554	1.3327925	-0.14633835	1.5216577	1.3307449	0.2174058	1.4495399	1.3685078	0.030916153	1.4672372	1.0180939	-0.19267172	1.450561	1.017342	0.28741017	1.6128314	0.82159056	-0.23521059	1.630172	0.84942748	0.31060911
450	1.796	1.6876805	0.033474241	-0.010371398	1.3676081	0.083812224	0.16175394	1.5620516	0.066589056	-0.030729891	1.3242286	0.21313448	0.18496162	1.5663627	0.083024338	0.055321404	1.3613667	0.2115368	0.10478033	1.4877017	0.041284958	0.015478757	1.2818459	0.24692535	0.12082768	1.6441187	0.43397173	-0.056816705	1.6275791	0.43598675	0.22271606	1.6160116	0.43399401	0.061725914	1.6290017	0.41545507	0.089377287	1.5539004	0.82085776	-0.12950242	1.5094827	0.78513347	0.21047648	1.6186617	0.8638477	-0.077609729	1.6018745	0.84878481	0.1693156	1.4207367	0.92629556	0.043349809	1.5400572	1.3350039	-0.14623313	1.5272448	1.3323369	0.21740649	1.4551441	1.3701023	0.030907749	1.4750907	1.0195005	-0.19301611	1.4540855	1.0194897	0.28665398	1.624373	0.82505846	-0.23400545	1.6309275	0.84914513	0.31140499
451	1.8	1.6876759	0.033478167	-0.010350535	1.3860508	0.083176083	0.16270673	1.5620506	0.066762873	-0.030622248	1.3391096	0.21118997	0.1847498	1.5648361	0.082993457	0.055609056	1.3760608	0.21005885	0.10431112	1.487721	0.04153224	0.015640102	1.2959616	0.24358722	0.11984249	1.6449525	0.43400391	-0.056390382	1.6387523	0.43948591	0.22215082	1.6160434	0.43408951	0.062157742	1.6407772	0.41936471	0.088732603	1.5593497	0.82182547	-0.12965026	1.516257	0.78750508	0.21058186	1.6240352	0.86535239	-0.07812791	1.6078554	0.85102632	0.16869265	1.4263928	0.92774394	0.043101651	1.546013	1.337173	-0.14612351	1.532799	1.3338584	0.21736754	1.4607401	1.3716492	0.030902853	1.4829226	1.0209148	-0.19338564	1.4576957	1.0216255	0.28595393	1.6356817	0.82862332	-0.23278555	1.6316513	0.84889756	0.31215204
452	1.804	1.6876808	0.033490213	-0.010328637	1.4045965	0.082525987	0.16365493	1.5620396	0.066953494	-0.030525343	1.3541025	0.20910341	0.18449983	1.563061	0.082951922	0.055954096	1.3909636	0.20840723	0.10402707	1.4877347	0.041815207	0.015800016	1.3102606	0.24002728	0.11888178	1.6457447	0.43402748	-0.05599686	1.6498021	0.44294975	0.22155289	1.6158714	0.43427963	0.062629114	1.6519284	0.42343915	0.087999738	1.564779	0.822779	-0.12978461	1.5230683	0.78988839	0.21070132	1.6294117	0.86684079	-0.078620384	1.613855	0.85325726	0.16805621	1.4318221	0.92918484	0.042892089	1.551897	1.3392697	-0.14600882	1.5383352	1.3353227	0.21730789	1.4663282	1.3731517	0.030885643	1.4907433	1.0223307	-0.19379696	1.4612359	1.0237439	0.28527773	1.6469365	0.83226827	-0.23152539	1.6323551	0.84867759	0.31285839
453	1.808	1.6877021	0.033508116	-0.010305042	1.42339	0.081896978	0.16461885	1.5620213	0.06715653	-0.030446432	1.3691254	0.20689222	0.18425274	1.5619456	0.083013772	0.056211389	1.4060445	0.2065841	0.10386116	1.4877585	0.04210624	0.015935919	1.3246401	0.2362513	0.11809336	1.6464858	0.43403864	-0.05563591	1.6607339	0.44635471	0.22091953	1.6156421	0.43454131	0.063104561	1.6625029	0.427537	0.087259222	1.5701369	0.82369726	-0.12991291	1.5300313	0.79226067	0.2108363	1.6348027	0.86829438	-0.07908526	1.6199357	0.85547285	0.16741789	1.4370727	0.93062688	0.042715838	1.5577389	1.3412868	-0.14589555	1.5438706	1.336731	0.21723321	1.4718985	1.3745988	0.03084704	1.4985529	1.023738	-0.19425253	1.4646406	1.02582	0.28459034	1.6584048	0.83595102	-0.23020521	1.6330554	0.84848066	0.31353518
454	1.812	1.6877433	0.03352556	-0.010281064	1.4425798	0.081314315	0.1656185	1.5620069	0.067363696	-0.030384671	1.3841447	0.20457216	0.18403499	1.5617556	0.083205728	0.056329987	1.4212465	0.2045966	0.10373006	1.4878091	0.042381316	0.016042837	1.339074	0.23227232	0.11747527	1.6471553	0.43403341	-0.055308296	1.6715582	0.44968593	0.22025413	1.6156204	0.43480581	0.063521612	1.6728369	0.43151434	0.086577612	1.5753696	0.82456274	-0.13004692	1.5371647	0.79458249	0.21102611	1.6402025	0.86969205	-0.079528722	1.626118	0.85766633	0.16678539	1.4422313	0.93205098	0.042574204	1.5635798	1.3432318	-0.14578658	1.5494149	1.3380776	0.21714652	1.4774433	1.3759713	0.030788336	1.5063369	1.0251277	-0.19473819	1.4678589	1.0278344	0.28385823	1.6701058	0.83965308	-0.22883538	1.6337615	0.84829913	0.31418976
455	1.816	1.6878008	0.03353551	-0.010259893	1.4620851	0.080759994	0.1666555	1.5620087	0.067567943	-0.030332619	1.3991891	0.20213425	0.18383728	1.5620384	0.083466133	0.056374558	1.4365304	0.20246399	0.10357596	1.4878894	0.042639486	0.016136848	1.3535829	0.22810145	0.11696627	1.6477456	0.43401526	-0.055016346	1.6822668	0.45294009	0.21956434	1.6159026	0.43503778	0.063860077	1.6830871	0.4353127	0.085972163	1.5804727	0.82537115	-0.13019294	1.5444391	0.79679306	0.21130165	1.6455931	0.87102294	-0.079955908	1.6323378	0.85982976	0.16615792	1.4473808	0.93341886	0.042452607	1.5694381	1.3451153	-0.14567823	1.5549619	1.3393542	0.2170553	1.4829687	1.3772588	0.030722227	1.5140722	1.0264961	-0.19522293	1.4708709	1.029784	0.2830731	1.6817865	0.84339541	-0.22744509	1.634475	0.8481266	0.31482422
456	1.82	1.6878667	0.033536218	-0.010243898	1.4815458	0.080167136	0.16771214	1.5620305	0.067767054	-0.030280228	1.4142927	0.19955968	0.18363959	1.5623491	0.083733439	0.056416285	1.4518897	0.2002152	0.10335634	1.487987	0.042902367	0.016242851	1.3681908	0.22372957	0.1165183	1.6482767	0.43399229	-0.054758493	1.6928416	0.45612656	0.21885713	1.6163838	0.43525769	0.064151964	1.6932205	0.43895784	0.085422434	1.5856033	0.82612278	-0.13032401	1.551861	0.79884143	0.21164253	1.6509681	0.87228712	-0.080363435	1.6385253	0.86195345	0.16552874	1.4526127	0.93469594	0.042293279	1.5753088	1.34694	-0.1455637	1.5605014	1.3405479	0.21697194	1.4884887	1.3784634	0.030671393	1.5217456	1.0278405	-0.19568377	1.4737998	1.0316654	0.28227809	1.6932668	0.84719346	-0.22604628	1.6352013	0.8479639	0.31543956
457	1.824	1.6879328	0.033531146	-0.010232949	1.5006264	0.079466911	0.16877481	1.5620672	0.067964076	-0.03022086	1.4294792	0.19684431	0.18343778	1.5625711	0.083984045	0.056474011	1.4673323	0.19786902	0.10304992	1.4880862	0.043197204	0.016378899	1.3829255	0.2191435	0.11609273	1.6487714	0.43396876	-0.054535622	1.7032886	0.45926453	0.21813707	1.6169625	0.43550049	0.064424929	1.7031974	0.44250589	0.084884777	1.5909409	0.82681283	-0.13040163	1.5594904	0.80072115	0.21199371	1.656368	0.87349061	-0.080738815	1.6446743	0.86402886	0.1648966	1.4580175	0.93587425	0.042011608	1.5811783	1.3486987	-0.14543758	1.5660365	1.3416468	0.21690757	1.4940103	1.3795933	0.030654846	1.5293822	1.0291533	-0.19614574	1.4768884	1.033464	0.28155128	1.7045651	0.85103645	-0.22462886	1.635952	0.84781249	0.31604154
458	1.828	1.6879951	0.033525237	-0.010225594	1.5192393	0.078621287	0.16984962	1.562111	0.068165972	-0.030154314	1.4447728	0.19399596	0.18324009	1.5627582	0.084219641	0.056532137	1.4828644	0.19541361	0.10269899	1.4881785	0.043537601	0.016546036	1.397817	0.2143568	0.11565662	1.649232	0.43394687	-0.054356945	1.7136372	0.4623653	0.21740813	1.6176342	0.43578765	0.064671799	1.7130275	0.44600049	0.084304853	1.5964351	0.82743047	-0.13042631	1.5673663	0.80246277	0.21230609	1.6619026	0.87463714	-0.081063088	1.6508213	0.86604986	0.16427473	1.4636062	0.93697349	0.041570429	1.5870379	1.3503817	-0.14529794	1.5715815	1.3426468	0.21686391	1.4995321	1.3806541	0.030669649	1.5370393	1.0304207	-0.19666728	1.4802917	1.0351703	0.28094054	1.7157547	0.85490766	-0.22318151	1.6367357	0.84766218	0.31663919
